<svg width="18" height="18" viewBox="0 0 18 18" fill="none" xmlns="http://www.w3.org/2000/svg">
<path d="M8.09999 1.39C8.19169 1.23263 8.32306 1.10206 8.48098 1.01131C8.6389 0.92056 8.81785 0.872803 8.99999 0.872803C9.18213 0.872803 9.36108 0.92056 9.519 1.01131C9.67692 1.10206 9.80828 1.23263 9.89999 1.39L12.2292 5.38833L16.7525 6.36833C16.9304 6.407 17.0951 6.49162 17.2301 6.61378C17.3651 6.73593 17.4658 6.89134 17.522 7.06452C17.5783 7.2377 17.5881 7.42259 17.5506 7.60077C17.5131 7.77894 17.4296 7.94418 17.3083 8.08L14.225 11.5308L14.6917 16.135C14.7101 16.3163 14.6806 16.4992 14.6062 16.6656C14.5318 16.8319 14.415 16.9758 14.2676 17.083C14.1202 17.1901 13.9472 17.2566 13.766 17.276C13.5848 17.2954 13.4017 17.2669 13.235 17.1933L8.99999 15.3267L4.76499 17.1933C4.59825 17.2669 4.41515 17.2954 4.23395 17.276C4.05275 17.2566 3.87981 17.1901 3.73238 17.083C3.58495 16.9758 3.46821 16.8319 3.39379 16.6656C3.31938 16.4992 3.28991 16.3163 3.30832 16.135L3.77499 11.5308L0.691654 8.08083C0.570177 7.94502 0.48645 7.77972 0.448832 7.60143C0.411214 7.42314 0.421021 7.23811 0.477274 7.06479C0.533527 6.89148 0.634257 6.73596 0.769409 6.61375C0.904561 6.49154 1.06941 6.40692 1.24749 6.36833L5.77082 5.38833L8.09999 1.39Z" fill="#228F86"/>
</svg>
