<?xml version="1.0" encoding="UTF-8"?><svg id="Layer_2" xmlns="http://www.w3.org/2000/svg" viewBox="0 0 467.9984 72"><g id="Components"><g id="_1c0c0284-1fb0-4876-9250-ed7d24f81e09_1"><path d="m179.5925,13.9548h-19.4158v56.8316h-14.9663V13.9548h-19.3147V0h53.6967v13.9548Z" style="fill:#544f4c; stroke-width:0px;"/><path d="m218.9147,40.955v29.8315h-12.7417l-.6068-6.0677h-.3032c-2.8317,4.4499-8.3933,7.2812-15.2699,7.2812-9.8089,0-16.3819-5.8656-16.3819-14.2589,0-8.0897,5.7641-13.4491,18.1012-15.2694l13.5506-2.0224v-.2021c0-5.4609-2.6292-7.8876-7.9891-7.8876-5.0558,0-7.7865,2.2245-8.0897,6.3704h-13.9553c.5057-11.1235,8.7979-18.1012,22.5507-18.1012,13.8542,0,21.135,7.0787,21.135,20.3261Zm-13.6517,9.5058v-.8093l-9.7079,1.4161c-5.562.7078-7.5844,2.6292-7.5844,5.5615s2.225,4.5506,6.2698,4.5506c6.573,0,11.0225-4.2469,11.0225-10.7189Z" style="fill:#544f4c; stroke-width:0px;"/><path d="m272.9233,40.3482v30.4382h-14.1574v-26.4945c0-7.6855-2.8313-10.6178-7.9886-10.6178-5.562,0-9.2022,3.5391-9.2022,10.9214v26.1908h-14.1574V21.8424h12.9438l.5057,5.9666h.4042c2.9328-4.4495,8.6969-7.1802,15.0678-7.1802,10.1121,0,16.584,6.8766,16.584,19.7194Z" style="fill:#544f4c; stroke-width:0px;"/><path d="m330.1611,0v70.7865h-12.9438l-.6063-5.9662h-.3036c-2.5277,4.3484-8.1912,7.1797-14.6631,7.1797-12.1345,0-21.8424-10.1125-21.8424-25.6856s9.7079-25.6856,21.8424-25.6856c6.5734,0,11.6297,2.9328,13.9553,6.7755h.4042V0h14.1574Zm-13.7523,46.3144c0-8.1907-4.6521-12.9438-11.124-12.9438s-11.1235,4.7531-11.1235,12.9438,4.6516,12.9438,11.1235,12.9438,11.124-4.7527,11.124-12.9438Z" style="fill:#544f4c; stroke-width:0px;"/><path d="m386.3883,49.7529h-35.2915c1.112,6.9776,5.5611,10.4153,11.8309,10.4153,4.6521,0,8.2927-2.022,9.8089-5.3594h13.4496c-2.5277,10.9214-11.4267,17.1912-23.3591,17.1912-15.3709,0-25.585-10.3147-25.585-25.382,0-15.3709,10.6183-25.9892,25.4835-25.9892,13.9553,0,24.0678,9.3037,24.0678,24.2699,0,1.4156-.1015,3.0339-.4051,4.8542Zm-34.7867-9.0001h21.0344c-1.0114-5.9666-4.8542-8.4948-9.9104-8.4948-5.4605,0-9.6068,2.8317-11.124,8.4948Z" style="fill:#544f4c; stroke-width:0px;"/><path d="m467.9984,40.3482v30.4382h-14.1574v-26.5955c0-7.4834-2.7307-10.5168-7.3819-10.5168-4.9557,0-8.4948,3.5391-8.4948,10.9214v26.1908h-14.1574v-26.5955c0-7.5844-2.6292-10.5168-7.2812-10.5168-5.1569,0-8.5954,3.6402-8.5954,10.9214v26.1908h-14.1574V21.8424h12.9438l.5057,5.9666h.4051c2.9319-4.4495,8.5954-7.1802,14.4601-7.1802s10.4161,2.6296,13.1459,7.787h.4051c3.4376-4.7531,9.3032-7.787,15.8766-7.787,10.011,0,16.483,6.7755,16.483,19.7194Z" style="fill:#544f4c; stroke-width:0px;"/><path d="m1.8019,14.5607c-.3833-.3868.0779-1.0137.5584-.7575,26.3846,14.0656,54.2246-6.3073,81.242-7.2122,7.0876-.2374,14.1187.865,21.052,4.2804,2.3722,1.1686,3.1941,4.1411,1.6956,6.3199-3.2864,4.7784-6.5727,9.5568-9.8589,14.3351-.9856,1.4331-2.9338,1.8796-4.4068.9547-26.0532-16.3583-53.9936,11.9143-79.9195-7.4607-3.4541-3.4866-6.9084-6.9732-10.3628-10.4597Z" style="fill:#228f86; stroke-width:0px;"/><path d="m94.0537,49.8544c-25.7351-19.7389-53.9436,8.1312-79.8362-8.5851-1.467-.9471-3.4316-.5184-4.437.9093-3.0457,4.3249-5.8835,8.3547-8.8801,12.6098-1.7531,2.4894-.8516,5.9543,1.8825,7.294,32.7765,16.0607,67.7113-18.6433,100.428-1.1687.5747.3069,1.1321-.4249.679-.8931-3.2789-3.3886-6.5577-6.7773-9.8363-10.1661Z" style="fill:#228f86; stroke-width:0px;"/></g></g></svg>