<svg width="180" height="29" viewBox="0 0 180 29" fill="none" xmlns="http://www.w3.org/2000/svg">
<path d="M69.0746 6.02105H61.6069V27.8794H55.8506V6.02105H48.4219V0.653801H69.0745L69.0746 6.02105Z" fill="#ECEAE8"/>
<path d="M84.1985 16.4058V27.8795H79.2979L79.0645 25.5457H78.9479C77.8587 27.2572 75.7197 28.3462 73.0748 28.3462C69.3021 28.3462 66.7741 26.0902 66.7741 22.862C66.7741 19.7506 68.991 17.6892 73.7361 16.9891L78.9479 16.2113V16.1335C78.9479 14.0332 77.9366 13.0998 75.8751 13.0998C73.9306 13.0998 72.8803 13.9554 72.7637 15.55H67.3962C67.5907 11.2717 70.7801 8.58798 76.0696 8.58798C81.3982 8.58798 84.1985 11.3106 84.1985 16.4058ZM78.9479 20.0619V19.7506L75.214 20.2953C73.0748 20.5675 72.297 21.3065 72.297 22.4343C72.297 23.5621 73.1527 24.1845 74.7084 24.1845C77.2365 24.1845 78.9479 22.5511 78.9479 20.0619Z" fill="#ECEAE8"/>
<path d="M104.971 16.1724V27.8794H99.526V17.6892C99.526 14.7332 98.437 13.6054 96.4534 13.6054C94.3142 13.6054 92.9141 14.9666 92.9141 17.806V27.8794H87.4689V9.05475H92.4473L92.6418 11.3496H92.7973C93.9253 9.63826 96.1423 8.58798 98.5926 8.58798C102.482 8.58798 104.971 11.2328 104.971 16.1724Z" fill="#ECEAE8"/>
<path d="M126.986 0.653801V27.8795H122.007L121.774 25.5848H121.657C120.685 27.2572 118.507 28.3462 116.018 28.3462C111.351 28.3462 107.617 24.4568 107.617 18.4671C107.617 12.4774 111.351 8.58798 116.018 8.58798C118.546 8.58798 120.491 9.71599 121.385 11.194H121.541V0.653801H126.986ZM121.696 18.4671C121.696 15.3168 119.907 13.4887 117.418 13.4887C114.929 13.4887 113.14 15.3168 113.14 18.4671C113.14 21.6174 114.929 23.4455 117.418 23.4455C119.907 23.4455 121.696 21.6175 121.696 18.4671Z" fill="#ECEAE8"/>
<path d="M148.612 19.7896H135.038C135.466 22.4733 137.177 23.7955 139.588 23.7955C141.378 23.7955 142.778 23.0178 143.361 21.7342H148.534C147.562 25.9347 144.139 28.3462 139.55 28.3462C133.638 28.3462 129.709 24.379 129.709 18.5839C129.709 12.672 133.793 8.58798 139.511 8.58798C144.878 8.58798 148.767 12.1663 148.767 17.9226C148.767 18.4671 148.728 19.0895 148.612 19.7896ZM135.232 16.328H143.322C142.933 14.0332 141.455 13.0608 139.511 13.0608C137.41 13.0608 135.816 14.1499 135.232 16.328Z" fill="#ECEAE8"/>
<path d="M180 16.1724V27.8794H174.555V17.6504C174.555 14.7721 173.505 13.6054 171.716 13.6054C169.81 13.6054 168.449 14.9666 168.449 17.806V27.8794H163.003V17.6503C163.003 14.7332 161.992 13.6054 160.203 13.6054C158.22 13.6054 156.897 15.0055 156.897 17.8059V27.8794H151.452V9.05475H156.43L156.625 11.3496H156.781C157.908 9.63826 160.087 8.58798 162.342 8.58798C164.598 8.58798 166.348 9.59937 167.398 11.583H167.554C168.876 9.75487 171.132 8.58798 173.661 8.58798C177.511 8.58798 180 11.194 180 16.1724Z" fill="#ECEAE8"/>
<path d="M0.693346 6.25409C0.545922 6.10532 0.723307 5.86421 0.908116 5.96274C11.0561 11.3726 21.7638 3.53685 32.1552 3.18881C34.8812 3.0975 37.5854 3.5215 40.2521 4.83512C41.1645 5.28459 41.4806 6.42786 40.9043 7.26586C39.6403 9.10372 38.3763 10.9416 37.1124 12.7794C36.7333 13.3306 35.984 13.5023 35.4174 13.1466C25.3969 6.8549 14.6506 17.729 4.67905 10.2771C3.35055 8.93606 2.02197 7.59506 0.693346 6.25409Z" fill="#228F86"/>
<path d="M36.1749 19.8286C26.2768 12.2367 15.4273 22.956 5.46859 16.5267C4.90436 16.1624 4.14874 16.3273 3.76205 16.8764C2.59062 18.5398 1.49916 20.0898 0.346614 21.7263C-0.327658 22.6838 0.0190742 24.0165 1.07065 24.5317C13.677 30.7089 27.1136 17.3612 39.6969 24.0822C39.918 24.2003 40.1324 23.9188 39.9581 23.7387C38.697 22.4354 37.4359 21.132 36.1749 19.8286Z" fill="#228F86"/>
</svg>
